:SAMPLES-PER-SECOND 30
:FULLY-SPECIFIED
:DEGREES
572
root  60.7008 37.3938 20.0527 172.641 76.8827 -177.898
RightUpLeg  10.56 -1.95819 0.176161
RightLeg  25.6517 -1.78809 -1.16759
RightFoot  -23.9616 -0.206971 -0.411788
RightToes  5.82063e-011 0 -3.6325e-017
Spine  2.47178 -0.77453 5.5154
Spine1  8.94429 0.307934 -3.71397
HEad  -7.80087 6.68777 -2.0016
LeftShoulder1  0.589665 1.74861 -27.4504
LeftArm  -7.98243 -33.1642 -36.9476
LeftForeArm  8.47888 -36.2971 -7.73557
LeftHand  -0.0582079 4.08883 3.56413
RightShoulder  0.242961 -2.57427 20.3527
RightArm  -4.78632 34.2986 43.3472
RightForeArm  0.302736 54.0655 15.6269
RightHand  -1.242 9.04283 -10.3344
LeftUpLeg  -17.0342 8.46779 10.2372
LeftLeg  0.775897 -2.0682 1.40243
LeftFoot  -3.57635 0.46834 -6.58271
LeftToes  1.68253e-010 -3.2327e-011 -2.69673e-012
573
root  61.796 37.0993 19.4988 174.47 77.0332 -175.931
RightUpLeg  12.7769 -1.63188 0.193888
RightLeg  25.5817 -1.86317 -1.20447
RightFoot  -25.7325 -0.148485 0.226281
RightToes  5.82063e-011 0 -3.6325e-017
Spine  2.12692 -0.997981 4.52495
Spine1  8.78404 -0.125711 -2.99277
HEad  -7.97842 7.18725 -1.58929
LeftShoulder1  0.614422 1.64421 -26.8749
LeftArm  -8.77207 -35.571 -36.3995
LeftForeArm  8.03452 -36.3839 -7.78831
LeftHand  -0.046531 4.66042 4.01028
RightShoulder  0.303975 -2.32346 19.7768
RightArm  -4.43211 36.2388 43.9797
RightForeArm  0.118022 54.5967 15.9704
RightHand  -1.19666 9.47653 -9.69655
LeftUpLeg  -17.6026 8.27823 10.5368
LeftLeg  0.301524 -4.35505 1.90017
LeftFoot  -3.76645 0.512818 -7.4006
LeftToes  1.68253e-010 -3.2327e-011 -2.69673e-012
574
root  62.8682 36.7797 18.7611 177.792 78.1782 -172.558
RightUpLeg  14.6331 -1.14609 -0.185606
RightLeg  25.8632 -1.12502 -0.823376
RightFoot  -27.0888 -0.219188 -0.264376
RightToes  5.82063e-011 0 -3.6325e-017
Spine  2.64955 -0.931879 5.6879
Spine1  7.43282 0.204232 -4.00218
HEad  -7.95224 8.03696 -1.43439
LeftShoulder1  0.611322 1.6235 -26.3279
LeftArm  -9.01056 -37.8685 -36.3388
LeftForeArm  7.21586 -35.4272 -7.56374
LeftHand  -0.0600533 4.05323 3.53033
RightShoulder  0.368501 -2.05736 19.38
RightArm  -3.32538 37.0965 43.8027
RightForeArm  -1.01288 55.2116 16.4603
RightHand  -1.22784 8.97222 -10.2612
LeftUpLeg  -18.2523 8.05883 11.0628
LeftLeg  3.03872 -5.22478 1.68118
LeftFoot  -3.67126 0.553022 -7.90008
LeftToes  1.68253e-010 -3.2327e-011 -2.69673e-012
575
root  63.8259 36.5108 17.8714 -179.928 80.6521 -170.628
RightUpLeg  15.7407 0.26573 -1.61335
RightLeg  26.1111 0.484954 0.0205794
RightFoot  -28.147 -0.112347 0.536392
RightToes  5.82063e-011 0 -3.6325e-017
Spine  3.95858 -0.480364 7.49443
Spine1  5.4032 1.17164 -6.20185
HEad  -8.25934 8.75607 -1.48357
LeftShoulder1  0.583081 1.70226 -26.1939
LeftArm  -8.67102 -39.7215 -35.8374
LeftForeArm  6.68356 -34.8661 -7.43888
LeftHand  -0.0526472 4.1898 3.33424
RightShoulder  0.466907 -1.63888 18.7976
RightArm  -3.19167 37.2053 44.2032
RightForeArm  -0.529147 55.8533 16.8432
RightHand  -1.21206 9.50738 -9.79625
LeftUpLeg  -18.986 6.68439 11.4306
LeftLeg  7.20632 -3.99568 1.214
LeftFoot  -0.793028 0.695123 -7.62646
LeftToes  1.68253e-010 -3.2327e-011 -2.69673e-012
576
root  65.0146 36.2806 17.05 175.769 81.672 -175.179
RightUpLeg  17.8774 1.04546 -3.85618
RightLeg  25.6829 1.41849 0.514126
RightFoot  -28.7379 0.130615 2.11411
RightToes  5.82063e-011 0 -3.6325e-017
Spine  3.58195 -0.210271 5.74481
Spine1  5.53031 1.30582 -5.75182
HEad  -8.49551 9.12295 -1.57717
LeftShoulder1  0.528335 1.8959 -26.6825
LeftArm  -8.29398 -41.528 -35.2863
LeftForeArm  6.52267 -34.3817 -7.31443
LeftHand  -0.0519058 4.0647 3.4104
RightShoulder  0.563109 -1.21807 18.2783
RightArm  -2.28183 37.2459 43.8345
RightForeArm  -1.53294 56.2663 17.223
RightHand  -1.18038 9.89962 -9.31983
LeftUpLeg  -19.8892 4.91013 10.6546
LeftLeg  11.1622 -4.47375 0.160488
LeftFoot  6.75133 1.28928 -8.16618
LeftToes  1.68253e-010 -3.2327e-011 -2.69673e-012
